<svg xmlns="http://www.w3.org/2000/svg" width="64" height="64" viewBox="0 0 128 128">
  <path d="M8 0.5C7.15 0.5 6.5 1.15 6.5 2L6.5 54.5C6.5 55.35 7.15 56 8 56L14 56L14 62C14 62.85 14.65 63.5 15.5 63.5L56 63.5C56.85 63.5 57.5 62.85 57.5 62L57.5 9.5C57.5 8.65 56.85 8 56 8L50 8L50 2C50 1.15 49.35 0.5 48.5 0.5L35.5 0.5C34.65 0.5 34 1.15 34 2C34 2.85 34.65 3.5 35.5 3.5L47 3.5L47 53L9.5 53L9.5 3.5L13.5 3.5C14.35 3.5 15 2.85 15 2C15 1.15 14.35 0.5 13.5 0.5L8 0.5 z M 19.5 0.5C18.65 0.5 18 1.15 18 2L18 17C18 17.65 18.4 18.200391 19 18.400391C19.6 18.600391 20.250391 18.400391 20.650391 17.900391L23.5 14.349609L26.349609 17.900391C26.649609 18.250391 27.05 18.449219 27.5 18.449219C27.65 18.449219 27.85 18.399609 28 18.349609C28.6 18.149609 29 17.549219 29 16.949219L29 2C29 1.15 28.35 0.5 27.5 0.5L19.5 0.5 z M 50 11L54.5 11L54.5 60.5L17 60.5L17 56L48.5 56C49.35 56 50 55.35 50 54.5L50 11 z" fill="#757575" />
</svg>