<svg xmlns="http://www.w3.org/2000/svg" viewBox="0 0 50 50">
  <path d="M41 2C37.145851 2 34 5.1458514 34 9C34 12.854149 37.145851 16 41 16C44.854149 16 48 12.854149 48 9C48 5.1458514 44.854149 2 41 2 z M 41 4C43.773268 4 46 6.2267316 46 9C46 11.773268 43.773268 14 41 14C38.226732 14 36 11.773268 36 9C36 6.2267316 38.226732 4 41 4 z M 7.0136719 5C6.4746719 5 5.9688437 5.2098438 5.5898438 5.5898438C5.2158437 5.9638438 5 6.4826719 5 7.0136719L5 42.511719C5 43.176719 5.2585156 43.801484 5.7285156 44.271484C6.1985156 44.741484 6.8232813 45 7.4882812 45L42.539062 45C43.896063 45 45 43.896063 45 42.539062L45 17.052734C44.371 17.366734 43.702 17.609531 43 17.769531L43 42.539062C43 42.793062 42.793063 43 42.539062 43L7.4882812 43C7.3592812 43 7.2335781 42.946469 7.1425781 42.855469C7.0515781 42.765469 7 42.640719 7 42.511719L7.0136719 7L32.230469 7C32.390469 6.298 32.633266 5.629 32.947266 5L7.0136719 5 z" fill="#757575" />
</svg>