<svg xmlns="http://www.w3.org/2000/svg" viewBox="0 0 50 50">
  <path d="M25 1C23.75 1 22.685226 1.5047556 22.001953 2.2734375C21.318681 3.0421194 21 4.0277779 21 5C21 5.4966904 21.085339 5.9957691 21.257812 6.46875C15.702627 7.9152078 12 12.553952 12 19C12 26.41755 10.547843 29.808728 9.1914062 31.673828C8.513188 32.606378 7.8476292 33.168819 7.2539062 33.724609C6.9570448 34.002505 6.6695769 34.279709 6.4257812 34.644531C6.1819857 35.009354 6 35.491667 6 36C6 37.375 6.8371355 38.530747 7.9921875 39.300781C9.1472395 40.070816 10.651796 40.58625 12.408203 40.976562C14.381291 41.415027 16.693605 41.670873 19.132812 41.822266C19.052934 42.194807 19 42.585813 19 43C19 46.32381 21.67619 49 25 49C28.32381 49 31 46.32381 31 43C31 42.585813 30.947066 42.194807 30.867188 41.822266C33.306395 41.670873 35.618709 41.415027 37.591797 40.976562C39.348204 40.58625 40.852761 40.070816 42.007812 39.300781C43.162864 38.530747 44 37.375 44 36C44 35.491667 43.818014 35.009354 43.574219 34.644531C43.330423 34.279709 43.042955 34.002505 42.746094 33.724609C42.152371 33.168819 41.486812 32.606378 40.808594 31.673828C39.452157 29.808728 38 26.41755 38 19C38 12.591017 34.336043 7.8775016 28.740234 6.4746094C28.91413 5.9999375 29 5.4986987 29 5C29 4.0277779 28.681319 3.0421194 27.998047 2.2734375C27.314774 1.5047556 26.25 1 25 1 z M 25 3C25.749999 3 26.185226 3.2452444 26.501953 3.6015625C26.81868 3.9578806 27 4.4722221 27 5C27 5.5277779 26.81868 6.0421194 26.501953 6.3984375C26.185226 6.7547556 25.749999 7 25 7C24.250001 7 23.814774 6.7547556 23.498047 6.3984375C23.18132 6.0421194 23 5.5277779 23 5C23 4.4722221 23.18132 3.9578806 23.498047 3.6015625C23.814774 3.2452444 24.250001 3 25 3 z M 22.558594 8.2304688C23.208375 8.7075696 24.050307 9 25 9C25.941913 9 26.778192 8.7123549 27.425781 8.2421875C32.741966 9.1666377 36 12.995237 36 19C36 26.68245 37.547843 30.591663 39.191406 32.851562C40.013188 33.981513 40.847629 34.688212 41.378906 35.185547C41.644545 35.434214 41.825827 35.629666 41.910156 35.755859C41.994486 35.882052 42 35.908333 42 36C42 36.625 41.712136 37.094253 40.898438 37.636719C40.084739 38.179184 38.776796 38.66375 37.158203 39.023438C33.921018 39.742812 29.462963 40 25 40C20.537037 40 16.078982 39.742812 12.841797 39.023438C11.223204 38.66375 9.9152605 38.179184 9.1015625 37.636719C8.2878645 37.094253 8 36.625 8 36C8 35.90833 8.0055098 35.882052 8.0898438 35.755859C8.1741728 35.629666 8.3554551 35.434214 8.6210938 35.185547C9.1523707 34.688212 9.9868119 33.981513 10.808594 32.851562C12.452157 30.591663 14 26.68245 14 19C14 12.971311 17.285276 9.2237025 22.558594 8.2304688 z M 21.177734 41.927734C22.439338 41.973336 23.71573 42 25 42C26.28427 42 27.560662 41.973336 28.822266 41.927734C28.925508 42.257591 29 42.605423 29 43C29 45.27619 27.27619 47 25 47C22.72381 47 21 45.27619 21 43C21 42.605423 21.074492 42.257591 21.177734 41.927734 z" fill="#757575" />
</svg>